<mxfile host="Electron" agent="Mozilla/5.0 (Windows NT 10.0; Win64; x64) AppleWebKit/537.36 (KHTML, like Gecko) draw.io/24.7.17 Chrome/128.0.6613.36 Electron/32.0.1 Safari/537.36" version="24.7.17" pages="2">
  <diagram name="페이지-1" id="CD3CnhGs_FFuU7DFN_gl">
    <mxGraphModel dx="1338" dy="828" grid="1" gridSize="10" guides="1" tooltips="1" connect="1" arrows="1" fold="1" page="1" pageScale="1" pageWidth="827" pageHeight="1169" math="0" shadow="0">
      <root>
        <mxCell id="0" />
        <mxCell id="1" parent="0" />
        <mxCell id="qcynNWfc9t0uGiLTbZhT-1" value="회원" style="text;html=1;align=center;verticalAlign=middle;resizable=0;points=[];autosize=1;strokeColor=none;fillColor=none;" vertex="1" parent="1">
          <mxGeometry x="85" y="180" width="50" height="30" as="geometry" />
        </mxCell>
        <mxCell id="qcynNWfc9t0uGiLTbZhT-2" value="비회원" style="text;html=1;align=center;verticalAlign=middle;resizable=0;points=[];autosize=1;strokeColor=none;fillColor=none;" vertex="1" parent="1">
          <mxGeometry x="525" y="180" width="60" height="30" as="geometry" />
        </mxCell>
        <mxCell id="qcynNWfc9t0uGiLTbZhT-3" value="관리자" style="text;html=1;align=center;verticalAlign=middle;resizable=0;points=[];autosize=1;strokeColor=none;fillColor=none;" vertex="1" parent="1">
          <mxGeometry x="85" y="515" width="60" height="30" as="geometry" />
        </mxCell>
        <mxCell id="qcynNWfc9t0uGiLTbZhT-6" value="판매자" style="text;html=1;align=center;verticalAlign=middle;resizable=0;points=[];autosize=1;strokeColor=none;fillColor=none;" vertex="1" parent="1">
          <mxGeometry x="555" y="470" width="60" height="30" as="geometry" />
        </mxCell>
        <mxCell id="qcynNWfc9t0uGiLTbZhT-7" value="게임구매" style="text;html=1;align=center;verticalAlign=middle;whiteSpace=wrap;rounded=0;" vertex="1" parent="1">
          <mxGeometry x="82.5" y="240" width="60" height="32" as="geometry" />
        </mxCell>
        <mxCell id="qcynNWfc9t0uGiLTbZhT-9" value="장바구니에 추가" style="text;html=1;align=center;verticalAlign=middle;resizable=0;points=[];autosize=1;strokeColor=none;fillColor=none;" vertex="1" parent="1">
          <mxGeometry x="77.5" y="282" width="110" height="30" as="geometry" />
        </mxCell>
        <mxCell id="qcynNWfc9t0uGiLTbZhT-10" value="장바구니 목록 삭제" style="text;html=1;align=center;verticalAlign=middle;resizable=0;points=[];autosize=1;strokeColor=none;fillColor=none;" vertex="1" parent="1">
          <mxGeometry x="75" y="312" width="130" height="30" as="geometry" />
        </mxCell>
        <mxCell id="qcynNWfc9t0uGiLTbZhT-11" value="장바구니 수정" style="text;html=1;align=center;verticalAlign=middle;resizable=0;points=[];autosize=1;strokeColor=none;fillColor=none;" vertex="1" parent="1">
          <mxGeometry x="90" y="345" width="100" height="30" as="geometry" />
        </mxCell>
        <mxCell id="qcynNWfc9t0uGiLTbZhT-12" value="마이페이지 조회" style="text;html=1;align=center;verticalAlign=middle;resizable=0;points=[];autosize=1;strokeColor=none;fillColor=none;" vertex="1" parent="1">
          <mxGeometry x="335" y="233" width="110" height="30" as="geometry" />
        </mxCell>
        <mxCell id="qcynNWfc9t0uGiLTbZhT-13" value="게시판 조회" style="text;html=1;align=center;verticalAlign=middle;resizable=0;points=[];autosize=1;strokeColor=none;fillColor=none;" vertex="1" parent="1">
          <mxGeometry x="195" y="345" width="90" height="30" as="geometry" />
        </mxCell>
        <mxCell id="qcynNWfc9t0uGiLTbZhT-15" value="게시판 글쓰기" style="text;html=1;align=center;verticalAlign=middle;resizable=0;points=[];autosize=1;strokeColor=none;fillColor=none;" vertex="1" parent="1">
          <mxGeometry x="325" y="263" width="100" height="30" as="geometry" />
        </mxCell>
        <mxCell id="qcynNWfc9t0uGiLTbZhT-16" value="이벤트 등록" style="text;html=1;align=center;verticalAlign=middle;resizable=0;points=[];autosize=1;strokeColor=none;fillColor=none;" vertex="1" parent="1">
          <mxGeometry x="80" y="550" width="90" height="30" as="geometry" />
        </mxCell>
        <mxCell id="qcynNWfc9t0uGiLTbZhT-17" value="물품 등록" style="text;html=1;align=center;verticalAlign=middle;resizable=0;points=[];autosize=1;strokeColor=none;fillColor=none;" vertex="1" parent="1">
          <mxGeometry x="555" y="510" width="70" height="30" as="geometry" />
        </mxCell>
        <mxCell id="qcynNWfc9t0uGiLTbZhT-18" value="물품 내용 수정" style="text;html=1;align=center;verticalAlign=middle;resizable=0;points=[];autosize=1;strokeColor=none;fillColor=none;" vertex="1" parent="1">
          <mxGeometry x="555" y="545" width="100" height="30" as="geometry" />
        </mxCell>
        <mxCell id="qcynNWfc9t0uGiLTbZhT-19" value="물품 삭제" style="text;html=1;align=center;verticalAlign=middle;resizable=0;points=[];autosize=1;strokeColor=none;fillColor=none;" vertex="1" parent="1">
          <mxGeometry x="555" y="580" width="70" height="30" as="geometry" />
        </mxCell>
        <mxCell id="qcynNWfc9t0uGiLTbZhT-20" value="회원가입" style="text;html=1;align=center;verticalAlign=middle;resizable=0;points=[];autosize=1;strokeColor=none;fillColor=none;" vertex="1" parent="1">
          <mxGeometry x="530" y="234.25" width="70" height="30" as="geometry" />
        </mxCell>
        <mxCell id="qcynNWfc9t0uGiLTbZhT-22" value="키워드별 조회" style="text;html=1;align=center;verticalAlign=middle;resizable=0;points=[];autosize=1;strokeColor=none;fillColor=none;" vertex="1" parent="1">
          <mxGeometry x="195" y="255" width="100" height="30" as="geometry" />
        </mxCell>
        <mxCell id="qcynNWfc9t0uGiLTbZhT-27" value="게임 상세 내용 조회" style="text;html=1;align=center;verticalAlign=middle;resizable=0;points=[];autosize=1;strokeColor=none;fillColor=none;" vertex="1" parent="1">
          <mxGeometry x="195" y="285" width="130" height="30" as="geometry" />
        </mxCell>
        <mxCell id="qcynNWfc9t0uGiLTbZhT-29" value="북마크 추가" style="text;html=1;align=center;verticalAlign=middle;resizable=0;points=[];autosize=1;strokeColor=none;fillColor=none;" vertex="1" parent="1">
          <mxGeometry x="90" y="383" width="90" height="30" as="geometry" />
        </mxCell>
        <mxCell id="qcynNWfc9t0uGiLTbZhT-30" value="게임별 후기 조회" style="text;html=1;align=center;verticalAlign=middle;resizable=0;points=[];autosize=1;strokeColor=none;fillColor=none;" vertex="1" parent="1">
          <mxGeometry x="200" y="315" width="110" height="30" as="geometry" />
        </mxCell>
        <mxCell id="qcynNWfc9t0uGiLTbZhT-38" value="개인정보 등록및 수정" style="text;strokeColor=none;align=center;fillColor=none;html=1;verticalAlign=middle;whiteSpace=wrap;rounded=0;" vertex="1" parent="1">
          <mxGeometry x="325" y="307" width="130" as="geometry" />
        </mxCell>
        <mxCell id="qcynNWfc9t0uGiLTbZhT-39" value="구매 목록 조회" style="text;strokeColor=none;align=center;fillColor=none;html=1;verticalAlign=middle;whiteSpace=wrap;rounded=0;" vertex="1" parent="1">
          <mxGeometry x="325" y="325" width="110" height="20" as="geometry" />
        </mxCell>
        <mxCell id="qcynNWfc9t0uGiLTbZhT-41" value="물품 조회" style="text;strokeColor=none;align=center;fillColor=none;html=1;verticalAlign=middle;whiteSpace=wrap;rounded=0;" vertex="1" parent="1">
          <mxGeometry x="560" y="620" width="60" height="25" as="geometry" />
        </mxCell>
        <mxCell id="qcynNWfc9t0uGiLTbZhT-42" value="공지사항 등록" style="text;strokeColor=none;align=center;fillColor=none;html=1;verticalAlign=middle;whiteSpace=wrap;rounded=0;" vertex="1" parent="1">
          <mxGeometry x="75" y="590" width="110" height="20" as="geometry" />
        </mxCell>
        <mxCell id="qcynNWfc9t0uGiLTbZhT-43" value="문의 글 등록" style="text;strokeColor=none;align=center;fillColor=none;html=1;verticalAlign=middle;whiteSpace=wrap;rounded=0;" vertex="1" parent="1">
          <mxGeometry x="75" y="625" width="110" height="20" as="geometry" />
        </mxCell>
        <mxCell id="qcynNWfc9t0uGiLTbZhT-48" value="회원탈퇴" style="text;html=1;align=center;verticalAlign=middle;resizable=0;points=[];autosize=1;strokeColor=none;fillColor=none;" vertex="1" parent="1">
          <mxGeometry x="329" y="355" width="70" height="30" as="geometry" />
        </mxCell>
        <mxCell id="ykk2w-Wy7sAwuOutuwSW-1" value="로그인" style="text;html=1;align=center;verticalAlign=middle;resizable=0;points=[];autosize=1;strokeColor=none;fillColor=none;" vertex="1" parent="1">
          <mxGeometry x="530" y="275.75" width="60" height="30" as="geometry" />
        </mxCell>
        <mxCell id="ykk2w-Wy7sAwuOutuwSW-2" value="판매내역 조회" style="text;html=1;align=center;verticalAlign=middle;resizable=0;points=[];autosize=1;strokeColor=none;fillColor=none;" vertex="1" parent="1">
          <mxGeometry x="650" y="510" width="100" height="30" as="geometry" />
        </mxCell>
      </root>
    </mxGraphModel>
  </diagram>
  <diagram id="5SxK8UP2nKnds_fhQgnK" name="페이지-2">
    <mxGraphModel dx="2165" dy="828" grid="1" gridSize="10" guides="1" tooltips="1" connect="1" arrows="1" fold="1" page="1" pageScale="1" pageWidth="827" pageHeight="1169" math="0" shadow="0">
      <root>
        <mxCell id="0" />
        <mxCell id="1" parent="0" />
        <mxCell id="wotGjE5In-CZQoYwchhj-1" value="게임 구매 서비스" style="shape=umlFrame;whiteSpace=wrap;html=1;pointerEvents=0;width=120;height=40;" vertex="1" parent="1">
          <mxGeometry x="80" y="160" width="680" height="460" as="geometry" />
        </mxCell>
        <mxCell id="wotGjE5In-CZQoYwchhj-2" value="회원" style="shape=umlActor;verticalLabelPosition=bottom;verticalAlign=top;html=1;" vertex="1" parent="1">
          <mxGeometry x="-30" y="200" width="30" height="60" as="geometry" />
        </mxCell>
        <mxCell id="wotGjE5In-CZQoYwchhj-3" value="비회원" style="shape=umlActor;verticalLabelPosition=bottom;verticalAlign=top;html=1;" vertex="1" parent="1">
          <mxGeometry x="-30" y="470" width="30" height="60" as="geometry" />
        </mxCell>
        <mxCell id="wotGjE5In-CZQoYwchhj-4" value="관리자" style="shape=umlActor;verticalLabelPosition=bottom;verticalAlign=top;html=1;" vertex="1" parent="1">
          <mxGeometry x="840" y="470" width="30" height="60" as="geometry" />
        </mxCell>
        <mxCell id="wotGjE5In-CZQoYwchhj-5" value="판매자" style="shape=umlActor;verticalLabelPosition=bottom;verticalAlign=top;html=1;" vertex="1" parent="1">
          <mxGeometry x="840" y="200" width="30" height="60" as="geometry" />
        </mxCell>
      </root>
    </mxGraphModel>
  </diagram>
</mxfile>
